<?xml version="1.0" standalone="no"?>
<!DOCTYPE svg PUBLIC "-//W3C//DTD SVG 20010904//EN"
 "http://www.w3.org/TR/2001/REC-SVG-20010904/DTD/svg10.dtd">
<svg version="1.0" xmlns="http://www.w3.org/2000/svg"
 width="400.000000pt" height="400.000000pt" viewBox="0 0 400.000000 400.000000"
 preserveAspectRatio="xMidYMid meet">
<metadata>
Created by potrace 1.14, written by Peter Selinger 2001-2017
</metadata>
<g transform="translate(0.000000,400.000000) scale(0.100000,-0.100000)"
fill="#000000" stroke="none">
<path d="M0 2000 l0 -2000 2000 0 2000 0 0 2000 0 2000 -2000 0 -2000 0 0
-2000z m1692 440 c44 -13 93 -66 107 -117 16 -55 13 -339 -3 -385 -12 -34 -12
-37 7 -42 17 -4 19 -11 14 -42 -8 -46 -8 -47 -43 -33 -19 8 -77 11 -161 10
-151 -3 -188 8 -229 68 -23 35 -24 40 -24 237 0 192 1 203 23 235 35 54 96 79
192 79 44 0 97 -5 117 -10z m1799 -170 l70 0 -42 -50 c-32 -38 -49 -50 -71
-50 l-28 0 0 -125 0 -124 60 -3 59 -3 -29 -47 -30 -48 -59 0 c-52 0 -62 3 -80
26 -19 24 -21 40 -21 175 l0 149 -40 0 -40 0 0 50 0 50 40 0 c35 0 40 3 40 22
0 13 20 42 48 71 l47 48 3 -71 3 -70 70 0z m-2841 -18 l29 -22 3 23 c3 19 10
22 51 25 l47 3 0 -315 0 -316 -185 0 -185 0 0 50 0 50 135 0 135 0 0 60 0 59
-32 -19 c-80 -46 -168 -28 -224 45 -25 33 -28 47 -32 124 -6 131 19 196 92
243 41 25 124 20 166 -10z m488 -1 l32 -22 0 25 c0 24 3 26 50 26 l50 0 0
-315 0 -315 -191 0 -190 0 3 48 3 47 138 3 137 3 0 60 0 61 -32 -20 c-70 -42
-147 -36 -201 15 -48 47 -57 73 -57 179 0 119 18 165 82 207 36 24 51 28 94
25 32 -3 63 -13 82 -27z m1495 20 c40 -16 99 -73 118 -116 10 -22 19 -61 19
-87 l0 -48 -145 0 c-161 0 -169 -3 -141 -58 35 -69 107 -83 158 -32 24 24 38
30 73 30 50 0 51 -9 7 -68 -118 -160 -344 -60 -345 152 0 129 87 234 195 236
20 0 48 -4 61 -9z m-621 -168 c2 -112 7 -168 14 -170 6 -2 44 33 83 77 l71 81
0 89 0 90 50 0 50 0 0 -225 0 -225 -50 0 -50 0 0 68 0 67 -63 -67 c-67 -73
-85 -80 -138 -52 -56 29 -69 76 -69 267 l0 167 50 0 50 0 2 -167z m1068 157
c19 -6 46 -19 60 -30 l25 -19 -27 -27 c-26 -27 -27 -27 -67 -10 -53 21 -74 20
-95 -3 -26 -29 -10 -47 74 -81 103 -41 125 -65 125 -135 0 -46 -4 -58 -30 -85
-16 -16 -47 -35 -69 -41 -47 -13 -126 -4 -170 18 -58 29 -60 33 -25 69 l31 32
33 -20 c62 -36 149 -8 119 39 -6 9 -41 29 -78 44 -79 32 -112 60 -121 100 -24
108 88 185 215 149z"/>
<path d="M1476 2339 l-26 -20 0 -183 c0 -224 -6 -215 130 -217 90 -1 95 0 117
25 22 26 23 35 23 187 0 222 -4 229 -146 229 -57 0 -77 -4 -98 -21z"/>
<path d="M532 2180 c-40 -24 -52 -54 -52 -126 0 -96 33 -144 98 -144 46 0 79
33 91 91 19 89 -6 169 -60 188 -41 14 -38 14 -77 -9z"/>
<path d="M1024 2184 c-42 -21 -54 -51 -54 -139 0 -64 3 -77 26 -104 21 -25 33
-31 65 -31 73 0 109 70 96 187 -8 77 -71 118 -133 87z"/>
<path d="M2506 2159 c-45 -53 -38 -59 69 -59 89 0 95 1 95 20 0 37 -44 70 -94
70 -37 0 -48 -5 -70 -31z"/>
</g>
</svg>
